<svg xmlns="http://www.w3.org/2000/svg" viewBox="0 0 24 24" fill="white" width="30px" height="30px">
  <path d="M12 2C6.477 2 2 6.477 2 12c0 4.418 2.865 8.166 6.839 9.489.5.092.682-.217.682-.482 0-.237-.008-.866-.013-1.7-2.782.603-3.369-1.34-3.369-1.34-.454-1.156-1.11-1.464-1.11-1.464-.908-.62.069-.608.069-.608 1.003.07 1.531 1.03 1.531 1.03.892 1.529 2.341 1.089 2.91.833.091-.647.349-1.086.635-1.337-2.22-.253-4.555-1.11-4.555-4.943 0-1.091.39-1.984 1.03-2.683-.103-.253-.447-1.27.098-2.647 0 0 .84-.269 2.75 1.026A9.564 9.564 0 0112 6.844c.85.004 1.705.115 2.504.337 1.909-1.295 2.747-1.026 2.747-1.026.547 1.377.203 2.394.1 2.647.64.699 1.026 1.592 1.026 2.683 0 3.842-2.337 4.688-4.565 4.935.359.309.678.92.678 1.855 0 1.337-.012 2.419-.012 2.747 0 .267.18.577.688.48C19.137 20.166 22 16.418 22 12c0-5.523-4.477-10-10-10z"/>
</svg>